<svg id="Layer_1" data-name="Layer 1" xmlns="http://www.w3.org/2000/svg" viewBox="0 0 137.8 91.68">
  <title>n_forex_com_tr_logo_s</title>
  <g>
    <path d="M78.46,83.22a7,7,0,0,0,2-3.94,5.25,5.25,0,0,0-4.9-6.13H59.18a2,2,0,0,0-1.91,1.69,1.44,1.44,0,0,0,1.24,1.62H74.64A2.37,2.37,0,0,1,77,79.24,3.28,3.28,0,0,1,73.9,82H58a2,2,0,0,0-1.91,1.69l-1.13,8.5a1.44,1.44,0,0,0,1.46,1.69,2,2,0,0,0,1.91-1.69l0.91-6.73H74.57A2.37,2.37,0,0,1,77,88.24l-0.54,4a1.44,1.44,0,0,0,1.46,1.69,2,2,0,0,0,1.91-1.69l0.54-4A5.35,5.35,0,0,0,78.46,83.22Z" transform="translate(0.01 -2.25)" style="fill: #2d3142"/>
    <path d="M48.25,73.13H34.64a7.26,7.26,0,0,0-7,6.15l-1.13,8.46a5.26,5.26,0,0,0,5.32,6.15H45.47a7.26,7.26,0,0,0,7-6.15l1.13-8.46A5.26,5.26,0,0,0,48.25,73.13Zm0.82,14.61a3.28,3.28,0,0,1-3.15,2.73H32.3a2.37,2.37,0,0,1-2.4-2.77L31,79.24a3.28,3.28,0,0,1,3.15-2.77H47.8a2.37,2.37,0,0,1,2.4,2.77Z" transform="translate(0.01 -2.25)" style="fill: #2d3142"/>
    <path d="M22.44,81.14H3.18a2,2,0,0,0-1.91,1.69L0,92.2a1.44,1.44,0,0,0,1.46,1.69A2,2,0,0,0,3.38,92.2l1-7.68H22a2,2,0,0,0,1.91-1.69A1.44,1.44,0,0,0,22.44,81.14Z" transform="translate(0.01 -2.25)" style="fill: #2d3142"/>
    <path d="M25.28,73.13h-21a2,2,0,0,0-1.94,1.69,1.44,1.44,0,0,0,1.21,1.63l0.25,0h21a2,2,0,0,0,1.91-1.69,1.44,1.44,0,0,0-1.21-1.63Z" transform="translate(0.01 -2.25)" style="fill: #2d3142"/>
    <path d="M108.33,73.13h-21a2,2,0,0,0-1.91,1.69,1.44,1.44,0,0,0,1.21,1.63l0.22,0h21a2,2,0,0,0,1.91-1.69,1.44,1.44,0,0,0-1.21-1.63Z" transform="translate(0.01 -2.25)" style="fill: #2d3142"/>
    <path d="M135,90.9l-7.89-7.34L137,76.28a1.78,1.78,0,0,0,.56-2.37,1.63,1.63,0,0,0-2.29-.28l-0.05,0-10.47,7.7-8.42-7.9a1.74,1.74,0,0,0-2.41.22A1.67,1.67,0,0,0,113.8,76l0,0,8,7.42-10,7.36a1.78,1.78,0,0,0-.56,2.37,1.45,1.45,0,0,0,1.22.62,1.89,1.89,0,0,0,1.12-.38l10.56-7.78,8.33,7.79a1.48,1.48,0,0,0,1,.39,1.94,1.94,0,0,0,1.38-.61A1.67,1.67,0,0,0,135,90.9Z" transform="translate(0.01 -2.25)" style="fill: #2d3142"/>
    <path d="M106,90.47H86.64l0.8-6H105A2,2,0,0,0,107,82.78a1.44,1.44,0,0,0-1.46-1.69H86.22a2,2,0,0,0-1.91,1.69l-1.25,9.37a1.44,1.44,0,0,0,1.46,1.69h21a2,2,0,0,0,1.91-1.69,1.44,1.44,0,0,0-1.18-1.66Z" transform="translate(0.01 -2.25)" style="fill: #2d3142"/>
  </g>
  <g>
    <g>
      <path d="M60.74,48.79c-0.74-.48-1.4-0.95-2-1.42a9.35,9.35,0,0,0,1.46-.31C60.42,47.64,60.59,48.22,60.74,48.79Z" transform="translate(0.01 -2.25)" style="fill: #00adee"/>
      <path d="M73.23,47.14c0.51-1.43,2.75-3.52,3.89-4.46a10,10,0,0,0-4.32,3.6h0l0,0.07-0.21.36a18.89,18.89,0,0,0-1.95,5.92,23.65,23.65,0,0,1-6.8-2.12c-0.42-.21-0.81-0.43-1.19-0.63a19.11,19.11,0,0,1-.25-4.68A16.58,16.58,0,0,1,60,46.34a16.19,16.19,0,0,1-1.91.51c-1-.83-1.88-1.68-2.89-2.63-2.49-2.36,1.31-8.06,2-13.45a10.89,10.89,0,0,1,1.59-4.09c-0.17.33-.32,0.66-0.45,1,1.21-2.61,4.16-5.15,6.47-6.52h0a18,18,0,0,1,4.7-2l0,0c0.49-.13,1-0.27,1.57-0.36l0.54-.08a2.26,2.26,0,0,1,.74,0l0.57,0A24.35,24.35,0,0,1,79.13,24a33.2,33.2,0,0,0,5.17,2.6l0.43,0.12L85.59,27c0.9-.71,2-1.42,2.9-0.88,0.63,0.36.64,1.39,0.55,2.06a6.48,6.48,0,0,1-.8,2.19c1.46,2.69,1.89,5.52.28,8.3a21,21,0,0,0,1.83,4.85l-0.62.37c-1.44.59-3.15,1.18-4.66,0.57a7.05,7.05,0,0,1-1.8-1.5c-0.31-.38-1-1.38-1-1.38a12.9,12.9,0,0,1-2.62-.7A6.57,6.57,0,0,1,76,35.59a6,6,0,0,0,1.67,4.77,7.42,7.42,0,0,0,3.85,2,10.34,10.34,0,0,0,1.35,1.74,10.66,10.66,0,0,0,1.48,1.21,25.08,25.08,0,0,0,7.86,13.58l1,0.9c-3-.39-6.92-1.6-9-4a12.5,12.5,0,0,1-5.94-2.6A18.86,18.86,0,0,1,73.23,47.14ZM78,30.32a3.46,3.46,0,0,0,.44.51,2.37,2.37,0,0,1,.13-2.63c0.56-.54,1.49-0.36,2.25.36A3.62,3.62,0,0,0,80.48,28c-0.79-1.12-2-1.51-2.68-.85S77.22,29.19,78,30.32Z" transform="translate(0.01 -2.25)" style="fill: #00adee"/>
    </g>
    <g>
      <path d="M72.41,15.59c-2.56.46-6.1,0.92-7.9-.51,1-.72,2.19-1.67,2.4-3C67.73,7,61.17,6.5,60.85,2.25c-1,4,3.12,4.62,2.91,7.52-0.13,1.85-2.05,2.92-4.3,2.65-4.6-.55-9.1-3.1-13.08-4a3.17,3.17,0,0,0-1.53,2.36c-0.54,1.7-.27,3.28.78,4.07,5.79,5.27,4.84,12.24,4.1,19.67a30.57,30.57,0,0,0-.09,3.26,49.18,49.18,0,0,0,9,27.57c-1.25-3.43-3.83-10.85-1.14-14.85,1.41-2.09,4.8-1.57,6.07.25,3.05,4.4,1.74,14.74.06,19.52A49.48,49.48,0,0,0,69.7,57c3.57-13.42-.52-27.94-5.18-37.91A11.76,11.76,0,0,0,72.41,15.59Z" transform="translate(0.01 -2.25)" style="fill: #00adee"/>
      <path d="M57.38,5.29C55,6,53.91,7.89,53.14,10.15c1.14,0.33,2.18.77,3.35,1.08C55.74,9.22,56,6.17,57.38,5.29Z" transform="translate(0.01 -2.25)" style="fill: #00adee"/>
    </g>
  </g>
</svg>
